<svg xmlns="http://www.w3.org/2000/svg" width="512" height="512" viewBox="0 0 512 512">
  <style>
    .st0{fill:#FA5252;}
    .st1{fill:#FF8787;}
    .st2{fill:#FFFFFF;}
    .st3{fill:#F1F3F5;}
    .st4{fill:#CED4DA;}
  </style>
  <g>
    <circle class="st0" cx="256" cy="256" r="200"/>
    <path class="st1" d="M352.2,158.5c-0.8-1-1.7-2.1-2.7-3.1c-33.4-38.9-82.6-63.6-137.5-63.6c-44.4,0-84.9,16-116.1,42.5
      c35.5,5.1,84.5,19.3,122.4,61.7c34.1,38.3,64.2,68.1,134.5,55.1C356.8,224.6,358.1,165.8,352.2,158.5z"/>
    <path class="st2" d="M253.2,332.6c-1.3,1-2.8,1.5-4.4,1.5h-84c-1.6,0-3.1-0.5-4.4-1.5c-2.1-1.5-3.3-4-3.3-6.6v-124
      c0-2.4,1.1-4.8,3-6.3c1.9-1.6,4.5-2.2,6.9-1.6l84,20c3.5,0.8,6,4,6,7.7v104.2C256.9,328.6,255.5,331.1,253.2,332.6z"/>
    <path class="st2" d="M346.9,333.8c-1.3,1-2.8,1.5-4.4,1.5h-84c-1.6,0-3.1-0.5-4.4-1.5c-2.1-1.5-3.3-4-3.3-6.6v-124
      c0-2.4,1.1-4.8,3-6.3c1.9-1.6,4.5-2.2,6.9-1.6l84,20c3.5,0.8,6,4,6,7.7v104.2C350.6,329.8,349.2,332.3,346.9,333.8z"/>
    <path class="st3" d="M274.5,248.3c2.7,0,4.9-2.2,4.9-4.9v-31c0-2.7-2.2-4.9-4.9-4.9s-4.9,2.2-4.9,4.9v31
      C269.6,246.1,271.8,248.3,274.5,248.3z"/>
    <g>
      <path class="st4" d="M261.1,349c0.8,3.5-1.4,7-4.9,7.8l-100,21.6c-3.5,0.8-7-1.4-7.8-4.9c-0.8-3.5,1.4-7,4.9-7.8l100-21.6
        C256.8,343.3,260.3,345.5,261.1,349z"/>
      <path class="st4" d="M361.1,349c0.8,3.5-1.4,7-4.9,7.8l-100,21.6c-3.5,0.8-7-1.4-7.8-4.9c-0.8-3.5,1.4-7,4.9-7.8l100-21.6
        C356.8,343.3,360.3,345.5,361.1,349z"/>
    </g>
    <path class="st3" d="M315.6,189.2l-35-8.3l0,0l-18-4.3c-3.5-0.8-7,1.4-7.8,4.9c-0.8,3.5,1.4,7,4.9,7.8l18,4.3l0,0l35,8.3
      c3.5,0.8,7-1.4,7.8-4.9C321.3,193.5,319.1,190,315.6,189.2z"/>
    <path class="st3" d="M182.2,173.6c0.8-3.5-1.4-7-4.9-7.8l-35-8.3c-3.5-0.8-7,1.4-7.8,4.9c-0.8,3.5,1.4,7,4.9,7.8l35,8.3
      C178,179.3,181.4,177.1,182.2,173.6z"/>
    <g>
      <path class="st4" d="M145.1,273.2c-2.7,0-4.9-2.2-4.9-4.9v-30c0-2.7,2.2-4.9,4.9-4.9s4.9,2.2,4.9,4.9v30
        C150,271,147.8,273.2,145.1,273.2z"/>
    </g>
  </g>
</svg>
