<svg xmlns="http://www.w3.org/2000/svg" xmlns:xlink="http://www.w3.org/1999/xlink" contentStyleType="text/css" data-diagram-type="DESCRIPTION" height="1712px" preserveAspectRatio="none" style="width:320px;height:1712px;background:#FFFFFF;" version="1.1" viewBox="0 0 320 1712" width="320px" zoomAndPan="magnify"><defs/><g><!--cluster ??????--><g class="cluster" data-entity="&#22312;&#32447;&#36141;&#20070;&#31995;&#32479;" data-source-line="6" data-uid="ent0004" id="cluster_&#22312;&#32447;&#36141;&#20070;&#31995;&#32479;"><rect fill="none" height="1699" rx="2.5" ry="2.5" style="stroke:#181818;stroke-width:1;" width="246.28" x="68" y="7"/><text fill="#000000" font-family="sans-serif" font-size="14" font-weight="bold" lengthAdjust="spacing" textLength="83.9996" x="149.1402" y="21.9951">&#22312;&#32447;&#36141;&#20070;&#31995;&#32479;</text></g><!--cluster ????--><g class="cluster" data-entity="&#29992;&#25143;&#36134;&#25143;" data-source-line="8" data-uid="ent0005" id="cluster_&#29992;&#25143;&#36134;&#25143;"><path d="M110.82,860 L167.8198,860 A3.75,3.75 0 0 1 170.3198,862.5 L177.3198,882.2969 L271.45,882.2969 A2.5,2.5 0 0 1 273.95,884.7969 L273.95,1135.5 A2.5,2.5 0 0 1 271.45,1138 L110.82,1138 A2.5,2.5 0 0 1 108.32,1135.5 L108.32,862.5 A2.5,2.5 0 0 1 110.82,860" fill="none" style="stroke:#000000;stroke-width:1.5;"/><line style="stroke:#000000;stroke-width:1.5;" x1="108.32" x2="177.3198" y1="882.2969" y2="882.2969"/><text fill="#000000" font-family="sans-serif" font-size="14" font-weight="bold" lengthAdjust="spacing" textLength="55.9998" x="112.32" y="874.9951">&#29992;&#25143;&#36134;&#25143;</text></g><!--cluster ????--><g class="cluster" data-entity="&#21830;&#21697;&#27983;&#35272;" data-source-line="15" data-uid="ent0010" id="cluster_&#21830;&#21697;&#27983;&#35272;"><path d="M110.82,558 L167.8198,558 A3.75,3.75 0 0 1 170.3198,560.5 L177.3198,580.2969 L271.45,580.2969 A2.5,2.5 0 0 1 273.95,582.7969 L273.95,833.5 A2.5,2.5 0 0 1 271.45,836 L110.82,836 A2.5,2.5 0 0 1 108.32,833.5 L108.32,560.5 A2.5,2.5 0 0 1 110.82,558" fill="none" style="stroke:#000000;stroke-width:1.5;"/><line style="stroke:#000000;stroke-width:1.5;" x1="108.32" x2="177.3198" y1="580.2969" y2="580.2969"/><text fill="#000000" font-family="sans-serif" font-size="14" font-weight="bold" lengthAdjust="spacing" textLength="55.9998" x="112.32" y="572.9951">&#21830;&#21697;&#27983;&#35272;</text></g><!--cluster ???--><g class="cluster" data-entity="&#36141;&#29289;&#36710;" data-source-line="22" data-uid="ent0015" id="cluster_&#36141;&#29289;&#36710;"><path d="M94.5,242 L137.4998,242 A3.75,3.75 0 0 1 139.9998,244.5 L146.9998,264.2969 L287.78,264.2969 A2.5,2.5 0 0 1 290.28,266.7969 L290.28,531.5 A2.5,2.5 0 0 1 287.78,534 L94.5,534 A2.5,2.5 0 0 1 92,531.5 L92,244.5 A2.5,2.5 0 0 1 94.5,242" fill="none" style="stroke:#000000;stroke-width:1.5;"/><line style="stroke:#000000;stroke-width:1.5;" x1="92" x2="146.9998" y1="264.2969" y2="264.2969"/><text fill="#000000" font-family="sans-serif" font-size="14" font-weight="bold" lengthAdjust="spacing" textLength="41.9998" x="96" y="256.9951">&#36141;&#29289;&#36710;</text></g><!--cluster ??--><g class="cluster" data-entity="&#35746;&#21333;" data-source-line="29" data-uid="ent0020" id="cluster_&#35746;&#21333;"><path d="M106.76,50 L135.7599,50 A3.75,3.75 0 0 1 138.2599,52.5 L145.2599,72.2969 L275.52,72.2969 A2.5,2.5 0 0 1 278.02,74.7969 L278.02,215.5 A2.5,2.5 0 0 1 275.52,218 L106.76,218 A2.5,2.5 0 0 1 104.26,215.5 L104.26,52.5 A2.5,2.5 0 0 1 106.76,50" fill="none" style="stroke:#000000;stroke-width:1.5;"/><line style="stroke:#000000;stroke-width:1.5;" x1="104.26" x2="145.2599" y1="72.2969" y2="72.2969"/><text fill="#000000" font-family="sans-serif" font-size="14" font-weight="bold" lengthAdjust="spacing" textLength="27.9999" x="108.26" y="64.9951">&#35746;&#21333;</text></g><!--cluster ????(???)--><g class="cluster" data-entity="&#21830;&#21697;&#31649;&#29702;(&#31649;&#29702;&#21592;)" data-source-line="34" data-uid="ent0023" id="cluster_&#21830;&#21697;&#31649;&#29702;(&#31649;&#29702;&#21592;)"><path d="M110.82,1405 L222.6164,1405 A3.75,3.75 0 0 1 225.1164,1407.5 L232.1164,1427.2969 L271.45,1427.2969 A2.5,2.5 0 0 1 273.95,1429.7969 L273.95,1679.5 A2.5,2.5 0 0 1 271.45,1682 L110.82,1682 A2.5,2.5 0 0 1 108.32,1679.5 L108.32,1407.5 A2.5,2.5 0 0 1 110.82,1405" fill="none" style="stroke:#000000;stroke-width:1.5;"/><line style="stroke:#000000;stroke-width:1.5;" x1="108.32" x2="232.1164" y1="1427.2969" y2="1427.2969"/><text fill="#000000" font-family="sans-serif" font-size="14" font-weight="bold" lengthAdjust="spacing" textLength="110.7964" x="112.32" y="1419.9951">&#21830;&#21697;&#31649;&#29702;(&#31649;&#29702;&#21592;)</text></g><!--cluster ????(???)--><g class="cluster" data-entity="&#35746;&#21333;&#31649;&#29702;(&#31649;&#29702;&#21592;)" data-source-line="41" data-uid="ent0028" id="cluster_&#35746;&#21333;&#31649;&#29702;(&#31649;&#29702;&#21592;)"><path d="M105.71,1162 L217.5064,1162 A3.75,3.75 0 0 1 220.0064,1164.5 L227.0064,1184.2969 L276.57,1184.2969 A2.5,2.5 0 0 1 279.07,1186.7969 L279.07,1378.5 A2.5,2.5 0 0 1 276.57,1381 L105.71,1381 A2.5,2.5 0 0 1 103.21,1378.5 L103.21,1164.5 A2.5,2.5 0 0 1 105.71,1162" fill="none" style="stroke:#000000;stroke-width:1.5;"/><line style="stroke:#000000;stroke-width:1.5;" x1="103.21" x2="227.0064" y1="1184.2969" y2="1184.2969"/><text fill="#000000" font-family="sans-serif" font-size="14" font-weight="bold" lengthAdjust="spacing" textLength="110.7964" x="107.21" y="1176.9951">&#35746;&#21333;&#31649;&#29702;(&#31649;&#29702;&#21592;)</text></g><g class="entity" data-entity="UC1" data-source-line="9" data-uid="ent0006" id="entity_UC1"><ellipse cx="191.1442" cy="910.0036" fill="#F1F1F1" rx="31.2842" ry="14.5236" style="stroke:#181818;stroke-width:0.5;"/><text fill="#000000" font-family="sans-serif" font-size="14" lengthAdjust="spacing" textLength="27.9999" x="177.1442" y="912.8503">&#27880;&#20876;</text></g><g class="entity" data-entity="UC2" data-source-line="10" data-uid="ent0007" id="entity_UC2"><ellipse cx="191.1442" cy="1107.0036" fill="#F1F1F1" rx="31.2842" ry="14.5236" style="stroke:#181818;stroke-width:0.5;"/><text fill="#000000" font-family="sans-serif" font-size="14" lengthAdjust="spacing" textLength="27.9999" x="177.1442" y="1109.8503">&#30331;&#24405;</text></g><g class="entity" data-entity="UC3" data-source-line="11" data-uid="ent0008" id="entity_UC3"><ellipse cx="191.1441" cy="1042.0028" fill="#F1F1F1" rx="66.8141" ry="15.7628" style="stroke:#181818;stroke-width:0.5;"/><text fill="#000000" font-family="sans-serif" font-size="14" lengthAdjust="spacing" textLength="83.9996" x="146.1443" y="1045.7504">&#26597;&#30475;&#20010;&#20154;&#20449;&#24687;</text></g><g class="entity" data-entity="UC4" data-source-line="12" data-uid="ent0009" id="entity_UC4"><ellipse cx="191.1441" cy="975.0028" fill="#F1F1F1" rx="66.8141" ry="15.7628" style="stroke:#181818;stroke-width:0.5;"/><text fill="#000000" font-family="sans-serif" font-size="14" lengthAdjust="spacing" textLength="83.9996" x="146.1443" y="978.7504">&#20462;&#25913;&#20010;&#20154;&#20449;&#24687;</text></g><g class="entity" data-entity="UC5" data-source-line="16" data-uid="ent0011" id="entity_UC5"><ellipse cx="191.1441" cy="804.0028" fill="#F1F1F1" rx="66.8141" ry="15.7628" style="stroke:#181818;stroke-width:0.5;"/><text fill="#000000" font-family="sans-serif" font-size="14" lengthAdjust="spacing" textLength="83.9996" x="146.1443" y="807.7504">&#27983;&#35272;&#25152;&#26377;&#21830;&#21697;</text></g><g class="entity" data-entity="UC6" data-source-line="17" data-uid="ent0012" id="entity_UC6"><ellipse cx="191.1441" cy="737.0028" fill="#F1F1F1" rx="66.8141" ry="15.7628" style="stroke:#181818;stroke-width:0.5;"/><text fill="#000000" font-family="sans-serif" font-size="14" lengthAdjust="spacing" textLength="83.9996" x="146.1443" y="740.7504">&#26597;&#30475;&#25351;&#23450;&#21830;&#21697;</text></g><g class="entity" data-entity="UC7" data-source-line="18" data-uid="ent0013" id="entity_UC7"><ellipse cx="191.1441" cy="671.9984" fill="#F1F1F1" rx="51.8541" ry="14.7084" style="stroke:#181818;stroke-width:0.5;"/><text fill="#000000" font-family="sans-serif" font-size="14" lengthAdjust="spacing" textLength="55.9998" x="160.1442" y="675.746">&#25628;&#32034;&#21830;&#21697;</text></g><g class="entity" data-entity="UC14" data-source-line="19" data-uid="ent0014" id="entity_UC14"><ellipse cx="191.1441" cy="607.9984" fill="#F1F1F1" rx="51.8541" ry="14.7084" style="stroke:#181818;stroke-width:0.5;"/><text fill="#000000" font-family="sans-serif" font-size="14" lengthAdjust="spacing" textLength="55.9998" x="160.1442" y="611.746">&#26597;&#30475;&#24191;&#21578;</text></g><g class="entity" data-entity="UC8" data-source-line="23" data-uid="ent0016" id="entity_UC8"><ellipse cx="191.1441" cy="502.0028" fill="#F1F1F1" rx="66.8141" ry="15.7628" style="stroke:#181818;stroke-width:0.5;"/><text fill="#000000" font-family="sans-serif" font-size="14" lengthAdjust="spacing" textLength="83.9996" x="146.1443" y="505.7504">&#28155;&#21152;&#21040;&#36141;&#29289;&#36710;</text></g><g class="entity" data-entity="UC9" data-source-line="24" data-uid="ent0017" id="entity_UC9"><ellipse cx="191.1367" cy="435.9973" fill="#F1F1F1" rx="62.0867" ry="14.8173" style="stroke:#181818;stroke-width:0.5;"/><text fill="#000000" font-family="sans-serif" font-size="14" lengthAdjust="spacing" textLength="69.9997" x="153.1369" y="439.7449">&#26597;&#30475;&#36141;&#29289;&#36710;</text></g><g class="entity" data-entity="UC10" data-source-line="25" data-uid="ent0018" id="entity_UC10"><ellipse cx="191.1377" cy="366.9975" fill="#F1F1F1" rx="83.1377" ry="19.0275" style="stroke:#181818;stroke-width:0.5;"/><text fill="#000000" font-family="sans-serif" font-size="14" lengthAdjust="spacing" textLength="125.9995" x="127.5914" y="370.0293">&#20462;&#25913;&#36141;&#29289;&#36710;&#21830;&#21697;&#25968;&#37327;</text></g><g class="entity" data-entity="UC11" data-source-line="26" data-uid="ent0019" id="entity_UC11"><ellipse cx="191.1434" cy="295.0007" fill="#F1F1F1" rx="77.3534" ry="17.8707" style="stroke:#181818;stroke-width:0.5;"/><text fill="#000000" font-family="sans-serif" font-size="14" lengthAdjust="spacing" textLength="111.9995" x="132.4232" y="298.6754">&#20174;&#36141;&#29289;&#36710;&#21024;&#38500;&#21830;&#21697;</text></g><g class="entity" data-entity="UC12" data-source-line="30" data-uid="ent0021" id="entity_UC12"><ellipse cx="191.1441" cy="186.9984" fill="#F1F1F1" rx="51.8541" ry="14.7084" style="stroke:#181818;stroke-width:0.5;"/><text fill="#000000" font-family="sans-serif" font-size="14" lengthAdjust="spacing" textLength="55.9998" x="160.1442" y="190.746">&#25552;&#20132;&#35746;&#21333;</text></g><g class="entity" data-entity="UC13" data-source-line="31" data-uid="ent0022" id="entity_UC13"><ellipse cx="191.142" cy="110.9973" fill="#F1F1F1" rx="70.882" ry="26.0473" style="stroke:#181818;stroke-width:0.5;"/><text fill="#000000" font-family="sans-serif" font-size="14" lengthAdjust="spacing" textLength="83.9996" x="149.1422" y="105.6955">&#20462;&#25913;&#35746;&#21333;&#29366;&#24577;</text><text fill="#000000" font-family="sans-serif" font-size="14" lengthAdjust="spacing" textLength="71.6404" x="155.3218" y="121.9924">(&#25903;&#20184;/&#21462;&#28040;)</text></g><g class="entity" data-entity="UC17" data-source-line="35" data-uid="ent0024" id="entity_UC17"><ellipse cx="191.1441" cy="1650.9984" fill="#F1F1F1" rx="51.8541" ry="14.7084" style="stroke:#181818;stroke-width:0.5;"/><text fill="#000000" font-family="sans-serif" font-size="14" lengthAdjust="spacing" textLength="55.9998" x="160.1442" y="1654.746">&#21019;&#24314;&#21830;&#21697;</text></g><g class="entity" data-entity="UC18" data-source-line="36" data-uid="ent0025" id="entity_UC18"><ellipse cx="191.1441" cy="1586.0028" fill="#F1F1F1" rx="66.8141" ry="15.7628" style="stroke:#181818;stroke-width:0.5;"/><text fill="#000000" font-family="sans-serif" font-size="14" lengthAdjust="spacing" textLength="83.9996" x="146.1443" y="1589.7504">&#26356;&#26032;&#21830;&#21697;&#20449;&#24687;</text></g><g class="entity" data-entity="UC19" data-source-line="37" data-uid="ent0026" id="entity_UC19"><ellipse cx="191.1441" cy="1520.9984" fill="#F1F1F1" rx="51.8541" ry="14.7084" style="stroke:#181818;stroke-width:0.5;"/><text fill="#000000" font-family="sans-serif" font-size="14" lengthAdjust="spacing" textLength="55.9998" x="160.1442" y="1524.746">&#21024;&#38500;&#21830;&#21697;</text></g><g class="entity" data-entity="UC20" data-source-line="38" data-uid="ent0027" id="entity_UC20"><ellipse cx="191.1441" cy="1456.0028" fill="#F1F1F1" rx="66.8141" ry="15.7628" style="stroke:#181818;stroke-width:0.5;"/><text fill="#000000" font-family="sans-serif" font-size="14" lengthAdjust="spacing" textLength="83.9996" x="146.1443" y="1459.7504">&#35843;&#25972;&#21830;&#21697;&#24211;&#23384;</text></g><g class="entity" data-entity="UC21" data-source-line="42" data-uid="ent0029" id="entity_UC21"><ellipse cx="191.1441" cy="1349.0028" fill="#F1F1F1" rx="66.8141" ry="15.7628" style="stroke:#181818;stroke-width:0.5;"/><text fill="#000000" font-family="sans-serif" font-size="14" lengthAdjust="spacing" textLength="83.9996" x="146.1443" y="1352.7504">&#26597;&#30475;&#25152;&#26377;&#35746;&#21333;</text></g><g class="entity" data-entity="UC22" data-source-line="43" data-uid="ent0030" id="entity_UC22"><ellipse cx="191.1392" cy="1280.9958" fill="#F1F1F1" rx="71.9292" ry="16.7858" style="stroke:#181818;stroke-width:0.5;"/><text fill="#000000" font-family="sans-serif" font-size="14" lengthAdjust="spacing" textLength="97.9996" x="139.1394" y="1284.7434">&#25353;&#29366;&#24577;&#31579;&#36873;&#35746;&#21333;</text></g><g class="entity" data-entity="UC23" data-source-line="44" data-uid="ent0031" id="entity_UC23"><ellipse cx="191.1441" cy="1213.0028" fill="#F1F1F1" rx="66.8141" ry="15.7628" style="stroke:#181818;stroke-width:0.5;"/><text fill="#000000" font-family="sans-serif" font-size="14" lengthAdjust="spacing" textLength="83.9996" x="146.1443" y="1216.7504">&#20462;&#25913;&#35746;&#21333;&#29366;&#24577;</text></g><!--entity Customer--><g class="entity" data-entity="Customer" data-source-line="3" data-uid="ent0002" id="entity_Customer"><ellipse cx="26.9999" cy="610.35" fill="#F1F1F1" rx="8" ry="8" style="stroke:#181818;stroke-width:0.5;"/><path d="M26.9999,618.35 L26.9999,645.35 M13.9999,626.35 L39.9999,626.35 M26.9999,645.35 L13.9999,660.35 M26.9999,645.35 L39.9999,660.35" fill="none" style="stroke:#181818;stroke-width:0.5;"/><text fill="#000000" font-family="sans-serif" font-size="14" lengthAdjust="spacing" textLength="27.9999" x="13" y="674.8451">&#39038;&#23458;</text></g><!--entity Admin--><g class="entity" data-entity="Admin" data-source-line="4" data-uid="ent0003" id="entity_Admin"><ellipse cx="26.9999" cy="1372.35" fill="#F1F1F1" rx="8" ry="8" style="stroke:#181818;stroke-width:0.5;"/><path d="M26.9999,1380.35 L26.9999,1407.35 M13.9999,1388.35 L39.9999,1388.35 M26.9999,1407.35 L13.9999,1422.35 M26.9999,1407.35 L39.9999,1422.35" fill="none" style="stroke:#181818;stroke-width:0.5;"/><text fill="#000000" font-family="sans-serif" font-size="14" lengthAdjust="spacing" textLength="41.9998" x="6" y="1436.8451">&#31649;&#29702;&#21592;</text></g><!--link UC1 to UC5--><!--link UC2 to UC8--><!--link UC3 to UC6--><!--link UC4 to UC7--><!--link UC9 to UC12--><!--link UC10 to UC13--><!--link UC14 to UC11--><!--link UC17 to UC21--><!--link UC18 to UC22--><!--link UC19 to UC23--><!--link Customer to UC1--><g class="link" data-entity-1="Customer" data-entity-2="UC1" data-source-line="61" data-uid="lnk42" id="link_Customer_UC1"><path d="M30.38,678.59 C34.09,728.27 42.72,811.16 60,836 C85.01,871.95 133.48,892.63 163.69,902.57" fill="none" id="Customer-UC1" style="stroke:#181818;stroke-width:1;"/></g><!--link Customer to UC2--><g class="link" data-entity-1="Customer" data-entity-2="UC2" data-source-line="62" data-uid="lnk43" id="link_Customer_UC2"><path d="M28.29,678.42 C29.4,779.13 34.71,1045.07 60,1075 C84.18,1103.61 129.42,1108.89 159.66,1108.87" fill="none" id="Customer-UC2" style="stroke:#181818;stroke-width:1;"/></g><!--link Customer to UC3--><g class="link" data-entity-1="Customer" data-entity-2="UC3" data-source-line="63" data-uid="lnk44" id="link_Customer_UC3"><path d="M28.87,678.58 C31.24,767.9 39.09,983.22 60,1008 C75.89,1026.83 100.78,1035.91 124.56,1040.08" fill="none" id="Customer-UC3" style="stroke:#181818;stroke-width:1;"/></g><!--link Customer to UC4--><g class="link" data-entity-1="Customer" data-entity-2="UC4" data-source-line="64" data-uid="lnk45" id="link_Customer_UC4"><path d="M29.65,678.48 C33.29,755.4 43.06,922.45 60,942 C76.03,960.5 100.8,969.37 124.45,973.41" fill="none" id="Customer-UC4" style="stroke:#181818;stroke-width:1;"/></g><!--link Customer to UC5--><g class="link" data-entity-1="Customer" data-entity-2="UC5" data-source-line="65" data-uid="lnk46" id="link_Customer_UC5"><path d="M27.49,678.59 C29.21,707.48 36.34,746 60,770 C77.13,787.38 101.96,796.23 125.35,800.63" fill="none" id="Customer-UC5" style="stroke:#181818;stroke-width:1;"/></g><!--link Customer to UC6--><g class="link" data-entity-1="Customer" data-entity-2="UC6" data-source-line="66" data-uid="lnk47" id="link_Customer_UC6"><path d="M40.58,678.32 C45.34,687.88 51.68,697.3 60,704 C78.97,719.27 104.14,727.58 127.29,732.05" fill="none" id="Customer-UC6" style="stroke:#181818;stroke-width:1;"/></g><!--link Customer to UC7--><g class="link" data-entity-1="Customer" data-entity-2="UC7" data-source-line="67" data-uid="lnk48" id="link_Customer_UC7"><path d="M41.27,642.62 C64.26,647.16 112.43,656.66 147.78,663.64" fill="none" id="Customer-UC7" style="stroke:#181818;stroke-width:1;"/></g><!--link Customer to UC8--><g class="link" data-entity-1="Customer" data-entity-2="UC8" data-source-line="68" data-uid="lnk49" id="link_Customer_UC8"><path d="M41.49,604.66 C46.33,594.95 52.49,584.92 60,577 C86.74,548.81 126.44,528.03 154.95,515.58" fill="none" id="Customer-UC8" style="stroke:#181818;stroke-width:1;"/></g><!--link Customer to UC9--><g class="link" data-entity-1="Customer" data-entity-2="UC9" data-source-line="69" data-uid="lnk50" id="link_Customer_UC9"><path d="M30.46,601.41 C34.08,556.98 42.43,487.72 60,469 C77.71,450.14 104.52,441.43 129.22,437.61" fill="none" id="Customer-UC9" style="stroke:#181818;stroke-width:1;"/></g><!--link Customer to UC10--><g class="link" data-entity-1="Customer" data-entity-2="UC10" data-source-line="70" data-uid="lnk51" id="link_Customer_UC10"><path d="M28.25,601.8 C29.42,542.68 35.01,432.82 60,404 C73.54,388.38 93.15,379.13 113.05,373.71" fill="none" id="Customer-UC10" style="stroke:#181818;stroke-width:1;"/></g><!--link Customer to UC11--><g class="link" data-entity-1="Customer" data-entity-2="UC11" data-source-line="71" data-uid="lnk52" id="link_Customer_UC11"><path d="M29.56,601.42 C33.09,522.93 42.72,350.29 60,330 C74.03,313.52 94.91,304.39 115.86,299.43" fill="none" id="Customer-UC11" style="stroke:#181818;stroke-width:1;"/></g><!--link Customer to UC12--><g class="link" data-entity-1="Customer" data-entity-2="UC12" data-source-line="72" data-uid="lnk53" id="link_Customer_UC12"><path d="M29.23,601.62 C32.4,511 41.94,289.23 60,261 C81.22,227.83 122.9,208 153.39,197.34" fill="none" id="Customer-UC12" style="stroke:#181818;stroke-width:1;"/></g><!--link Customer to UC13--><g class="link" data-entity-1="Customer" data-entity-2="UC13" data-source-line="73" data-uid="lnk54" id="link_Customer_UC13"><path d="M28.12,601.66 C28.77,493.26 33.03,190.08 60,155 C75.04,135.43 99.19,124.49 122.63,118.4" fill="none" id="Customer-UC13" style="stroke:#181818;stroke-width:1;"/></g><!--link Customer to UC14--><g class="link" data-entity-1="Customer" data-entity-2="UC14" data-source-line="74" data-uid="lnk55" id="link_Customer_UC14"><path d="M41.27,637.38 C64.26,632.84 112.43,623.34 147.78,616.36" fill="none" id="Customer-UC14" style="stroke:#181818;stroke-width:1;"/></g><!--link Admin to UC2--><g class="link" data-entity-1="Admin" data-entity-2="UC2" data-source-line="76" data-uid="lnk56" id="link_Admin_UC2"><path d="M29.54,1363.67 C32.42,1308.46 40.22,1209.98 60,1181 C84.68,1144.83 133.25,1124.21 163.57,1114.35" fill="none" id="Admin-UC2" style="stroke:#181818;stroke-width:1;"/></g><!--link Admin to UC17--><g class="link" data-entity-1="Admin" data-entity-2="UC17" data-source-line="77" data-uid="lnk57" id="link_Admin_UC17"><path d="M28.66,1440.4 C30.42,1495.58 36.81,1593.5 60,1619 C79.72,1640.69 111.56,1648.78 138.8,1651.4" fill="none" id="Admin-UC17" style="stroke:#181818;stroke-width:1;"/></g><!--link Admin to UC18--><g class="link" data-entity-1="Admin" data-entity-2="UC18" data-source-line="78" data-uid="lnk58" id="link_Admin_UC18"><path d="M31.53,1440.35 C35.92,1479.64 44.77,1537.16 60,1553 C76.8,1570.48 101.43,1579.2 124.75,1583.4" fill="none" id="Admin-UC18" style="stroke:#181818;stroke-width:1;"/></g><!--link Admin to UC19--><g class="link" data-entity-1="Admin" data-entity-2="UC19" data-source-line="79" data-uid="lnk59" id="link_Admin_UC19"><path d="M33.76,1440.43 C38.21,1457.52 46.09,1476.55 60,1489 C81.5,1508.23 112.71,1516.34 139.17,1519.59" fill="none" id="Admin-UC19" style="stroke:#181818;stroke-width:1;"/></g><!--link Admin to UC20--><g class="link" data-entity-1="Admin" data-entity-2="UC20" data-source-line="80" data-uid="lnk60" id="link_Admin_UC20"><path d="M48.21,1408.73 C73.84,1417.27 118.62,1432.18 151.03,1442.98" fill="none" id="Admin-UC20" style="stroke:#181818;stroke-width:1;"/></g><!--link Admin to UC21--><g class="link" data-entity-1="Admin" data-entity-2="UC21" data-source-line="81" data-uid="lnk61" id="link_Admin_UC21"><path d="M48.21,1395.39 C73.76,1387.04 118.32,1372.48 150.71,1361.89" fill="none" id="Admin-UC21" style="stroke:#181818;stroke-width:1;"/></g><!--link Admin to UC22--><g class="link" data-entity-1="Admin" data-entity-2="UC22" data-source-line="82" data-uid="lnk62" id="link_Admin_UC22"><path d="M34.1,1363.7 C38.62,1346.94 46.45,1328.33 60,1316 C77.21,1300.33 100.7,1291.55 122.99,1286.68" fill="none" id="Admin-UC22" style="stroke:#181818;stroke-width:1;"/></g><!--link Admin to UC23--><g class="link" data-entity-1="Admin" data-entity-2="UC23" data-source-line="83" data-uid="lnk63" id="link_Admin_UC23"><path d="M31.34,1363.4 C35.61,1323.08 44.39,1263.44 60,1247 C76.88,1229.22 101.81,1220.3 125.34,1215.97" fill="none" id="Admin-UC23" style="stroke:#181818;stroke-width:1;"/></g><!--SRC=[RLNBRjf05Dtp5QDicYnGiKt0BAjyGrTj5nQu13M12fnL5GaKYHXAWIWu8G4r0IMKLk9HXIR19kLdF6EpwYzq_4eOZrc0vjnpxvnxviwm9twKW9G3-KnwLmAfJ5vCIfbSDXGIab8k3rQzlt3S1q81x1mKfDo-c7S3nhXdDClmf6t5tgJsCpZ5oXMowJqHRC3kq52NvcoapmV6dMPeLnlWIoW4m6SX-Kb8OuRH6YBvmPmDyBSL0_XpK12JGW47qTqGbciRLkstEmmPCouq-AIuCTQNTtLhTB_gZxzqLTMNFLIQk3oEvEdBCMhD0tXHp3iaT4Ab34zBw4_3_27JEcqOLOgeMt68Rftj85seTWp7bmGlvkCrkyQiJp3YGPNWV0bFgfu_j6Xil57vQJuDQCKF6gnUGtcwHh6hy47x-4c981kVIQvLodHrtF2qHNmPMls5Bb-lBcw8PXc6RcNSXzyKkez6KrTllA2Jp0Qgiob6zHuLI- -pcwWrqRNsQzWuG_VobfV9UTjI1-_C-URpk6zvIeYjeDo1cags4gTfg3D3PrE7HemTmmVLfEr9q3HpUeIKcKE3wYaSjRshuLZlRylrWsehe2jtQktf9fnccG1ohUAOR8mwgwAFpz9y-dGyCkVfnh-lmEgoQPutpELtLB_zjwZXPqDNwt2XmCa2FXx1tqNCmiw0yBlTJ2ebPZ-ujmyN8Z3UnZW2YzbObC3YDfOWC7koh64cKSv1oNnxXAtZ9r3MHNaITUkIks43hDQz1nU4m-uZI28iXN0K4gMGRGg9KKYSGdWAIT0A8pH4gsPesGoj6pzf6BF_LbwQNLlQbsjzpVlM2LzwnBTcV6jVVNm4X_y1]--></g></svg>